<?xml version="1.0" encoding="UTF-8"?>
<svg width="40px" height="40px" viewBox="0 0 40 40" version="1.1" xmlns="http://www.w3.org/2000/svg" xmlns:xlink="http://www.w3.org/1999/xlink" xmlns:sketch="http://www.bohemiancoding.com/sketch/ns">
    <!-- Generator: Sketch 3.4.2 (15855) - http://www.bohemiancoding.com/sketch -->
    <title>Slice 1</title>
    <desc>Created with Sketch.</desc>
    <defs>
        <path id="path-1" d="M0.00585365854,0 L40,0 L40,40 L0.00585365854,40 L0.00585365854,0 Z"></path>
    </defs>
    <g id="Page-1" stroke="none" stroke-width="1" fill="none" fill-rule="evenodd" sketch:type="MSPage">
        <g id="001-instagram-logo" sketch:type="MSLayerGroup">
            <path d="M19.9798049,23.9611679 C22.1840976,23.9611679 23.9813659,22.1712895 23.9813659,19.9709002 C23.9813659,19.1021898 23.6962927,18.3000487 23.224878,17.6449635 C22.4980488,16.6398054 21.3162927,15.9806326 19.9820488,15.9806326 C18.6467317,15.9806326 17.4660488,16.6390268 16.7377561,17.6442822 C16.2644878,18.2992701 15.9820488,19.1014112 15.9813659,19.9701217 C15.9790244,22.1705109 17.774439,23.9611679 19.9798049,23.9611679 L19.9798049,23.9611679 Z" id="Fill-1" fill="#DC6868" sketch:type="MSShapeGroup"></path>
            <g id="Group-5">
                <mask id="mask-2" sketch:name="Clip 3" fill="white">
                    <use xlink:href="#path-1"></use>
                </mask>
                <g id="Clip-3"></g>
                <path d="M28.7145366,15.0895377 L28.7145366,11.2467153 L28.2130732,11.2486618 L24.8616585,11.2588808 L24.8746341,15.1023844 L28.7145366,15.0895377 Z" id="Fill-2" fill="#DC6868" sketch:type="MSShapeGroup" mask="url(#mask-2)"></path>
                <path d="M19.9805854,0.0389294404 C8.96341463,0.0389294404 0,8.98053528 0,19.9709002 C0,30.9604866 8.96341463,39.902871 19.9805854,39.902871 C30.9969756,39.902871 39.9611707,30.9604866 39.9611707,19.9709002 C39.9611707,8.98053528 30.998439,0.0389294404 19.9805854,0.0389294404 L19.9805854,0.0389294404 Z M31.3437073,17.6449635 L31.3437073,26.9261314 C31.3437073,29.3435523 29.3734634,31.3079319 26.952,31.3079319 L13.0091707,31.3079319 C10.5865366,31.3079319 8.61736585,29.3435523 8.61736585,26.9261314 L8.61736585,13.0172263 C8.61736585,10.6004866 10.5865366,8.63610706 13.0091707,8.63610706 L26.9512195,8.63610706 C29.3734634,8.63610706 31.3437073,10.6004866 31.3437073,13.0172263 L31.3437073,17.6449635 Z" id="Fill-4" fill="#DC6868" sketch:type="MSShapeGroup" mask="url(#mask-2)"></path>
            </g>
            <path d="M26.1962927,19.9709002 C26.1962927,23.3886131 23.4081951,26.1714842 19.9805854,26.1714842 C16.5525854,26.1714842 13.7656585,23.3886131 13.7656585,19.9709002 C13.7656585,19.1486131 13.9298537,18.3627251 14.2229268,17.6449635 L10.830439,17.6449635 L10.830439,26.9261314 C10.830439,28.1255474 11.8068293,29.096837 13.0083902,29.096837 L26.9500488,29.096837 C28.1501463,29.096837 29.128,28.1255474 29.128,26.9261314 L29.128,17.6449635 L25.7339512,17.6449635 C26.0293659,18.3627251 26.1962927,19.1486131 26.1962927,19.9709002 L26.1962927,19.9709002 Z" id="Fill-6" fill="#DC6868" sketch:type="MSShapeGroup"></path>
        </g>
    </g>
</svg>