<?xml version="1.0" encoding="UTF-8"?>
<svg width="410px" height="411px" viewBox="0 0 410 411" version="1.1" xmlns="http://www.w3.org/2000/svg" xmlns:xlink="http://www.w3.org/1999/xlink" xmlns:sketch="http://www.bohemiancoding.com/sketch/ns">
    <!-- Generator: Sketch 3.4.2 (15855) - http://www.bohemiancoding.com/sketch -->
    <title>Slice 1</title>
    <desc>Created with Sketch.</desc>
    <defs>
        <path id="path-1" d="M0.06,0 L410,0 L410,411 L0.06,411 L0.06,0 Z"></path>
    </defs>
    <g id="Page-1" stroke="none" stroke-width="1" fill="none" fill-rule="evenodd" sketch:type="MSPage">
        <g id="003-twitter" sketch:type="MSLayerGroup">
            <mask id="mask-2" sketch:name="Clip 2" fill="white">
                <use xlink:href="#path-1"></use>
            </mask>
            <g id="Clip-2"></g>
            <path d="M204.801,0.4 C91.699,0.4 0,92.099 0,205.201 C0,318.302 91.699,410.002 204.801,410.002 C317.902,410.002 409.602,318.302 409.602,205.201 C409.602,92.076 317.902,0.4 204.801,0.4 L204.801,0.4 Z M306.688,159.22 L306.84,165.752 C306.84,232.412 256.129,309.212 163.379,309.212 C134.91,309.212 108.414,300.869 86.094,286.556 C90.035,287.017 94.055,287.271 98.125,287.271 C121.754,287.271 143.488,279.209 160.742,265.693 C138.676,265.283 120.062,250.689 113.637,230.673 C116.734,231.259 119.859,231.541 123.137,231.541 C127.742,231.541 132.199,230.955 136.422,229.802 C113.355,225.142 95.973,204.791 95.973,180.369 L95.973,179.728 C102.781,183.517 110.539,185.771 118.809,186.052 C105.293,177.013 96.383,161.58 96.383,144.091 C96.383,134.853 98.867,126.201 103.191,118.752 C128.051,149.263 165.223,169.334 207.129,171.435 C206.258,167.748 205.824,163.88 205.824,159.939 C205.824,132.115 228.402,109.533 256.254,109.533 C270.746,109.533 283.852,115.65 293.066,125.455 C304.535,123.177 315.34,118.978 325.094,113.22 C321.328,124.998 313.344,134.877 302.922,141.123 C313.086,139.92 322.84,137.181 331.879,133.185 C325.121,143.275 316.543,152.158 306.688,159.22 L306.688,159.22 Z" id="Fill-1" fill="#DC6868" sketch:type="MSShapeGroup" mask="url(#mask-2)"></path>
        </g>
    </g>
</svg>